<svg id="svg" version="1.1" xmlns="http://www.w3.org/2000/svg" xmlns:xlink="http://www.w3.org/1999/xlink" width="400" height="343.6766623207301" viewBox="0, 0, 400,343.6766623207301"><g id="svgg"><path id="path0" d="M198.696 116.819 L 198.696 207.562 181.486 207.562 L 164.276 207.562 164.276 224.772 L 164.276 241.982 181.620 241.982 L 198.963 241.982 216.300 224.639 L 233.638 207.295 233.638 116.686 L 233.638 26.076 216.167 26.076 L 198.696 26.076 198.696 116.819 M100.652 291.503 L 100.652 310.821 104.824 310.821 L 108.996 310.821 108.998 302.868 C 109.000 292.956,110.790 289.448,115.848 289.441 C 119.334 289.436,119.670 290.417,119.850 301.126 L 120.012 310.821 124.191 310.821 L 128.369 310.821 128.200 300.261 C 128.033 289.828,128.014 289.671,126.602 287.268 C 123.185 281.455,115.392 280.492,110.780 285.313 L 109.257 286.905 108.996 279.697 L 108.735 272.490 104.694 272.338 L 100.652 272.186 100.652 291.503 M52.575 286.013 C 52.422 298.453,52.345 299.363,51.337 300.712 C 49.302 303.436,45.260 303.633,42.313 301.153 C 40.362 299.511,40.704 299.368,37.830 303.026 C 34.926 306.723,35.076 307.182,39.958 309.571 C 46.517 312.780,55.663 310.535,59.178 304.853 L 60.756 302.301 60.909 287.526 L 61.063 272.751 56.900 272.751 L 52.738 272.751 52.575 286.013 M275.880 291.786 L 275.880 310.821 287.375 310.821 L 298.870 310.821 298.718 306.780 L 298.566 302.738 291.395 302.593 L 284.224 302.448 284.224 287.599 L 284.224 272.751 280.052 272.751 L 275.880 272.751 275.880 291.786 M76.601 282.826 C 60.810 288.736,64.170 310.590,80.899 310.782 C 100.071 311.002,101.019 283.394,81.877 282.312 C 79.835 282.196,77.738 282.401,76.601 282.826 M146.765 283.127 C 145.595 283.658,144.128 284.741,143.505 285.533 L 142.373 286.972 142.373 284.816 L 142.373 282.660 137.932 282.660 L 133.490 282.660 133.629 296.610 L 133.768 310.561 137.940 310.561 L 142.112 310.561 142.256 302.278 C 142.418 292.992,142.884 291.609,146.345 290.163 C 151.663 287.941,152.485 289.320,152.803 300.996 L 153.064 310.561 157.236 310.561 L 161.408 310.561 161.382 300.913 C 161.365 294.482,161.133 290.608,160.685 289.296 C 158.695 283.452,152.294 280.616,146.765 283.127 M172.360 282.775 C 163.307 285.985,164.700 295.660,174.742 299.334 C 178.730 300.793,179.400 301.252,179.400 302.523 C 179.400 304.938,175.241 305.245,173.130 302.986 L 171.656 301.408 168.480 302.291 C 164.911 303.283,164.783 303.772,167.235 307.045 C 173.371 315.235,190.457 309.849,187.794 300.565 C 186.725 296.835,185.845 296.127,179.196 293.648 C 177.219 292.911,175.362 291.929,175.071 291.466 C 173.552 289.055,177.471 287.807,179.232 290.142 C 180.133 291.337,180.222 291.349,183.037 290.640 C 187.553 289.503,187.359 289.649,186.505 288.015 C 184.029 283.273,177.636 280.905,172.360 282.775 M202.086 282.832 C 186.079 288.102,189.697 310.794,206.547 310.816 C 222.095 310.836,226.896 290.921,213.048 283.847 C 209.954 282.267,205.153 281.822,202.086 282.832 M239.072 283.127 C 237.903 283.658,236.436 284.741,235.813 285.533 L 234.681 286.972 234.681 284.816 L 234.681 282.660 230.239 282.660 L 225.798 282.660 225.937 296.610 L 226.076 310.561 230.248 310.561 L 234.420 310.561 234.564 302.278 C 234.725 292.992,235.192 291.609,238.653 290.163 C 243.970 287.941,244.793 289.320,245.111 300.996 L 245.372 310.561 249.544 310.561 L 253.716 310.561 253.684 301.173 C 253.665 295.449,253.406 290.931,253.019 289.593 C 251.283 283.593,244.733 280.556,239.072 283.127 M312.174 282.965 C 301.969 286.223,299.124 300.422,307.278 307.402 C 311.508 311.023,319.894 312.052,325.163 309.595 C 329.269 307.681,329.426 307.211,326.812 304.646 L 324.578 302.454 322.328 303.248 C 318.276 304.677,314.558 304.167,312.436 301.889 C 310.190 299.478,310.627 299.348,320.991 299.348 L 330.639 299.348 330.639 296.540 C 330.639 286.379,321.810 279.888,312.174 282.965 M343.987 282.965 C 333.850 286.201,330.923 300.411,338.973 307.302 C 343.320 311.023,351.640 312.083,356.975 309.595 C 361.134 307.656,361.295 307.159,358.571 304.648 L 356.246 302.505 354.068 303.273 C 350.171 304.648,346.393 304.151,344.219 301.976 C 341.781 299.539,342.404 299.348,352.803 299.348 L 362.451 299.348 362.451 296.540 C 362.451 286.379,353.623 279.888,343.987 282.965 M83.708 290.190 C 88.534 292.207,89.005 299.985,84.464 302.667 C 82.427 303.871,79.195 303.761,77.505 302.431 C 71.064 297.365,76.274 287.084,83.708 290.190 M210.005 290.758 C 214.135 293.464,213.894 300.542,209.596 302.765 C 205.789 304.734,201.342 302.842,200.251 298.789 C 198.558 292.502,204.810 287.354,210.005 290.758 M320.219 290.227 C 321.550 290.916,322.816 292.421,322.816 293.316 C 322.816 293.479,320.235 293.611,317.080 293.611 C 313.924 293.611,311.343 293.479,311.343 293.316 C 311.343 290.383,316.829 288.474,320.219 290.227 M352.031 290.227 C 353.363 290.916,354.628 292.421,354.628 293.316 C 354.628 293.479,352.047 293.611,348.892 293.611 C 345.737 293.611,343.155 293.479,343.155 293.316 C 343.155 290.383,348.641 288.474,352.031 290.227 " stroke="none" fill="#000000" fill-rule="evenodd"></path></g></svg>